<?xml version="1.0" standalone="no"?><!DOCTYPE svg PUBLIC "-//W3C//DTD SVG 1.1//EN" "http://www.w3.org/Graphics/SVG/1.1/DTD/svg11.dtd"><svg class="icon" width="48px" height="48.00px" viewBox="0 0 1024 1024" version="1.1" xmlns="http://www.w3.org/2000/svg"><path d="M1024 512c-93.44 180.224-287.744 303.872-512 303.872S93.44 692.224 0 512c93.44-180.224 287.744-303.872 512-303.872S930.56 331.776 1024 512zM512 698.112c110.08 0 199.168-85.248 199.168-190.464S622.08 317.184 512 317.184s-199.168 85.248-199.168 190.464S401.92 698.112 512 698.112z" fill="#2a65ad" /><path d="M369.664 512c0 83.2 63.744 150.784 142.336 150.784S654.336 595.2 654.336 512 590.592 361.216 512 361.216 369.664 428.8 369.664 512z" fill="#2a65ad" /></svg>