<svg t="1620444557621" class="icon" viewBox="0 0 1024 1024" version="1.1" xmlns="http://www.w3.org/2000/svg" p-id="981" width="128" height="128"><path d="M958.945882 309.248v453.933176a60.235294 60.235294 0 0 1-60.416 59.572706H115.832471c-16.022588 0-31.382588-6.384941-42.767059-17.648941a59.934118 59.934118 0 0 1-17.648941-42.465882V309.248l420.683294 251.120941c19.154824 11.444706 43.008 11.444706 62.162823 0l420.683294-251.181176z m-60.416-161.129412a60.235294 60.235294 0 0 1 60.416 60.114824v16.865882l-451.764706 269.613177-451.764705-269.673412v-16.865883a60.235294 60.235294 0 0 1 60.416-60.054588h782.697411z" fill="#333333" p-id="982"></path></svg>